<svg id="Layer_1" data-name="Layer 1" xmlns="http://www.w3.org/2000/svg" viewBox="0 0 60 45.78"><defs><style>.cls-1{fill:#ffffff;stroke:#ffffff;stroke-miterlimit:10;stroke-width:2px;}</style></defs><path class="cls-1" d="M200.09,199.57a3.54,3.54,0,0,1-7.07,0,3.48,3.48,0,0,1,3.57-3.57A3.39,3.39,0,0,1,200.09,199.57Zm-6.35,40.22v-31.4h5.7v31.4Z" transform="translate(-192.02 -195)"/><path class="cls-1" d="M208.91,216.89c0-3.25-.06-5.91-.26-8.5h5.06l.33,5.19h.13a11.53,11.53,0,0,1,10.37-5.9c4.35,0,11.1,2.59,11.1,13.36v18.75h-5.71v-18.1c0-5.06-1.88-9.28-7.27-9.28a8.1,8.1,0,0,0-7.65,5.84,8.19,8.19,0,0,0-.39,2.66v18.88h-5.71Z" transform="translate(-192.02 -195)"/></svg>