<svg id="Layer_3" data-name="Layer 3" xmlns="http://www.w3.org/2000/svg" viewBox="0 0 80 56.88"><defs><style>.cls-1{fill:#ffffff;stroke:#ffffff;stroke-miterlimit:10;stroke-width:0.28px;}</style></defs><path class="cls-1" d="M340.06,357.31a22.63,22.63,0,0,1-6.66,6.83c-6.4,63.16-61.46,35.71-61.46,35.71s11.65,1.58,20.68-5.79c-9.46.26-13.05-9.71-13.05-9.71a11.26,11.26,0,0,0,6.31-.24c-.77-.27-11.12-1.79-11.21-13.88A20.83,20.83,0,0,0,281,372c-9.59-7.22-5.34-16.5-4.33-18.66,3.21,4.56,14.92,14.37,28.42,14.6a14.24,14.24,0,0,1-.67-4.35,14.38,14.38,0,0,1,26.14-8.28,83.56,83.56,0,0,0,7.61-3.51,13.39,13.39,0,0,1-5.66,7.43,4.94,4.94,0,0,1-.49.3l.55-.11A41.7,41.7,0,0,0,340.06,357.31Z" transform="translate(-271.13 -349.04)"/></svg>